<svg width="90" height="35" viewBox="0 0 90 35" fill="none" xmlns="http://www.w3.org/2000/svg">
<g style="mix-blend-mode:luminosity">
<path d="M62.9531 25.2244V3.2666H67.3154V25.2244H62.9531Z" fill="#F7A600"/>
<path d="M12.1452 31.7449H2.80078V9.78711H11.7663C16.1286 9.78711 18.6656 12.1933 18.6656 15.9595C18.6656 18.4005 17.0355 19.9698 15.9105 20.4929C17.2536 21.1089 18.987 22.4922 18.987 25.4331C18.987 29.5247 16.1286 31.7449 12.1452 31.7449ZM11.4334 13.6114H7.17451V18.6679H11.4334C13.2817 18.6679 14.3148 17.645 14.3148 16.1338C14.3148 14.6227 13.2817 13.6114 11.4334 13.6114ZM11.7089 22.5154H7.16303V27.909H11.7089C13.6834 27.909 14.6248 26.6768 14.6248 25.189C14.6248 23.7011 13.6834 22.5154 11.7089 22.5154Z" fill="#14192C"/>
<path d="M32.2797 22.7363V31.7449H27.9519V22.7363L21.2363 9.78711H25.9659L30.133 18.633L34.2427 9.78711H38.9723L32.2797 22.7363Z" fill="#14192C"/>
<path d="M51.3483 31.7449H42.0039V9.78711H50.9695C55.3317 9.78711 57.8687 12.1933 57.8687 15.9595C57.8687 18.4005 56.2386 19.9698 55.1136 20.4929C56.4567 21.1089 58.1901 22.4922 58.1901 25.4331C58.1787 29.5247 55.3317 31.7449 51.3483 31.7449ZM50.6251 13.6114H46.3662V18.6679H50.6251C52.4733 18.6679 53.5065 17.645 53.5065 16.1338C53.5065 14.6227 52.4733 13.6114 50.6251 13.6114ZM50.9006 22.5154H46.3547V27.909H50.9006C52.8751 27.909 53.8164 26.6768 53.8164 25.189C53.8164 23.7011 52.8866 22.5154 50.9006 22.5154Z" fill="#14192C"/>
<path d="M81.3562 13.6114V31.7449H76.994V13.6114H71.1738V9.78711H87.1879V13.6114H81.3562Z" fill="#14192C"/>
</g>
</svg>
